<?xml version="1.0" encoding="UTF-8" standalone="no"?>
<!DOCTYPE svg PUBLIC "-//W3C//DTD SVG 1.1//EN" "http://www.w3.org/Graphics/SVG/1.1/DTD/svg11.dtd">
<svg width="100%" height="100%" viewBox="0 0 2762 684" version="1.1" xmlns="http://www.w3.org/2000/svg" xmlns:xlink="http://www.w3.org/1999/xlink" xml:space="preserve" xmlns:serif="http://www.serif.com/" style="fill-rule:evenodd;clip-rule:evenodd;stroke-linejoin:round;stroke-miterlimit:2;">
    <g transform="matrix(1,0,0,1,-11799,-22406.3)">
        <g transform="matrix(1,0,0,1,11426.4,21507.7)">
            <g transform="matrix(65.9598,0,0,16.3182,372.601,898.58)">
                <rect x="0" y="0" width="41.865" height="41.865" style="fill:white;fill-opacity:0;"/>
            </g>
            <g transform="matrix(9.20689,0,0,9.20689,-8974.72,-7014.52)">
                <g transform="matrix(50,0,0,50,1041.68,908.976)">
                    <path d="M0.075,0L0.166,0L0.166,-0.041C0.166,-0.064 0.163,-0.079 0.163,-0.079L0.165,-0.079C0.198,-0.022 0.26,0.012 0.326,0.012C0.46,0.012 0.556,-0.092 0.556,-0.253C0.556,-0.41 0.471,-0.518 0.334,-0.518C0.264,-0.518 0.2,-0.483 0.17,-0.429L0.168,-0.429C0.168,-0.429 0.172,-0.447 0.172,-0.472L0.172,-0.706L0.075,-0.706L0.075,0ZM0.169,-0.251C0.169,-0.379 0.239,-0.433 0.315,-0.433C0.399,-0.433 0.458,-0.362 0.458,-0.252C0.458,-0.137 0.392,-0.072 0.312,-0.072C0.216,-0.072 0.169,-0.161 0.169,-0.251Z" style="fill-rule:nonzero;"/>
                </g>
                <g transform="matrix(50,0,0,50,1069.73,908.976)">
                    <path d="M0.042,-0.253C0.042,-0.103 0.152,0.012 0.311,0.012C0.381,0.012 0.458,-0.015 0.507,-0.06L0.466,-0.131C0.426,-0.095 0.371,-0.072 0.317,-0.072C0.226,-0.072 0.148,-0.131 0.143,-0.24L0.511,-0.24C0.513,-0.254 0.515,-0.268 0.515,-0.281C0.515,-0.411 0.439,-0.518 0.296,-0.518C0.152,-0.518 0.042,-0.414 0.042,-0.253ZM0.146,-0.31C0.16,-0.394 0.219,-0.443 0.294,-0.443C0.36,-0.443 0.414,-0.397 0.417,-0.31L0.146,-0.31Z" style="fill-rule:nonzero;"/>
                </g>
                <g transform="matrix(50,0,0,50,1095.58,908.976)">
                    <path d="M0.042,-0.253C0.042,-0.101 0.153,0.012 0.313,0.012C0.392,0.012 0.469,-0.02 0.515,-0.069L0.476,-0.14C0.437,-0.099 0.376,-0.072 0.32,-0.072C0.215,-0.072 0.141,-0.151 0.141,-0.254C0.141,-0.357 0.215,-0.434 0.317,-0.434C0.37,-0.434 0.423,-0.41 0.457,-0.376L0.503,-0.444C0.455,-0.495 0.38,-0.518 0.313,-0.518C0.154,-0.518 0.042,-0.403 0.042,-0.253Z" style="fill-rule:nonzero;"/>
                </g>
                <g transform="matrix(50,0,0,50,1131.33,908.976)">
                    <path d="M0.032,-0.062C0.082,-0.011 0.157,0.012 0.225,0.012C0.333,0.012 0.407,-0.051 0.407,-0.137C0.407,-0.304 0.146,-0.275 0.146,-0.374C0.146,-0.417 0.183,-0.437 0.232,-0.437C0.277,-0.437 0.33,-0.42 0.36,-0.392L0.399,-0.462C0.355,-0.502 0.293,-0.518 0.235,-0.518C0.136,-0.518 0.053,-0.468 0.053,-0.372C0.053,-0.206 0.313,-0.232 0.313,-0.135C0.313,-0.093 0.278,-0.069 0.227,-0.069C0.174,-0.069 0.116,-0.091 0.078,-0.128L0.032,-0.062Z" style="fill-rule:nonzero;"/>
                </g>
                <g transform="matrix(50,0,0,50,1151.33,908.976)">
                    <path d="M0.05,0.105L0.016,0.179C0.016,0.179 0.057,0.21 0.113,0.21C0.184,0.21 0.247,0.17 0.277,0.091L0.515,-0.506L0.41,-0.506L0.287,-0.174C0.278,-0.148 0.27,-0.114 0.27,-0.114L0.268,-0.114C0.268,-0.114 0.259,-0.15 0.249,-0.175L0.122,-0.506L0.013,-0.506L0.225,-0.006L0.2,0.052C0.181,0.098 0.148,0.127 0.108,0.127C0.078,0.127 0.05,0.105 0.05,0.105Z" style="fill-rule:nonzero;"/>
                </g>
                <g transform="matrix(50,0,0,50,1175.53,908.976)">
                    <path d="M0.032,-0.062C0.082,-0.011 0.157,0.012 0.225,0.012C0.333,0.012 0.407,-0.051 0.407,-0.137C0.407,-0.304 0.146,-0.275 0.146,-0.374C0.146,-0.417 0.183,-0.437 0.232,-0.437C0.277,-0.437 0.33,-0.42 0.36,-0.392L0.399,-0.462C0.355,-0.502 0.293,-0.518 0.235,-0.518C0.136,-0.518 0.053,-0.468 0.053,-0.372C0.053,-0.206 0.313,-0.232 0.313,-0.135C0.313,-0.093 0.278,-0.069 0.227,-0.069C0.174,-0.069 0.116,-0.091 0.078,-0.128L0.032,-0.062Z" style="fill-rule:nonzero;"/>
                </g>
                <g transform="matrix(50,0,0,50,1195.88,908.976)">
                    <path d="M0.096,-0.185C0.096,-0.016 0.225,0.005 0.29,0.005C0.305,0.005 0.316,0.003 0.324,0.002L0.324,-0.084C0.314,-0.082 0.308,-0.082 0.301,-0.082C0.264,-0.082 0.193,-0.095 0.193,-0.196L0.193,-0.422L0.315,-0.422L0.315,-0.501L0.193,-0.501L0.193,-0.645L0.098,-0.645L0.098,-0.501L0.03,-0.501L0.03,-0.422L0.096,-0.422L0.096,-0.185Z" style="fill-rule:nonzero;"/>
                </g>
                <g transform="matrix(50,0,0,50,1211.08,908.976)">
                    <path d="M0.042,-0.253C0.042,-0.103 0.152,0.012 0.311,0.012C0.381,0.012 0.458,-0.015 0.507,-0.06L0.466,-0.131C0.426,-0.095 0.371,-0.072 0.317,-0.072C0.226,-0.072 0.148,-0.131 0.143,-0.24L0.511,-0.24C0.513,-0.254 0.515,-0.268 0.515,-0.281C0.515,-0.411 0.439,-0.518 0.296,-0.518C0.152,-0.518 0.042,-0.414 0.042,-0.253ZM0.146,-0.31C0.16,-0.394 0.219,-0.443 0.294,-0.443C0.36,-0.443 0.414,-0.397 0.417,-0.31L0.146,-0.31Z" style="fill-rule:nonzero;"/>
                </g>
                <g transform="matrix(50,0,0,50,1236.93,908.976)">
                    <path d="M0.075,0L0.172,0L0.172,-0.236C0.172,-0.33 0.228,-0.43 0.324,-0.43C0.401,-0.43 0.411,-0.369 0.411,-0.303L0.411,0L0.508,0L0.508,-0.236C0.508,-0.333 0.564,-0.43 0.658,-0.43C0.733,-0.43 0.747,-0.374 0.747,-0.303L0.747,0L0.844,0L0.844,-0.324C0.844,-0.453 0.792,-0.518 0.677,-0.518C0.595,-0.518 0.525,-0.462 0.497,-0.403L0.495,-0.403C0.478,-0.479 0.429,-0.518 0.344,-0.518C0.264,-0.518 0.192,-0.458 0.168,-0.399L0.166,-0.399C0.166,-0.399 0.169,-0.416 0.169,-0.437L0.169,-0.506L0.075,-0.506L0.075,0Z" style="fill-rule:nonzero;"/>
                </g>
                <g transform="matrix(50,0,0,50,1280.63,908.976)">
                    <path d="M0.032,-0.062C0.082,-0.011 0.157,0.012 0.225,0.012C0.333,0.012 0.407,-0.051 0.407,-0.137C0.407,-0.304 0.146,-0.275 0.146,-0.374C0.146,-0.417 0.183,-0.437 0.232,-0.437C0.277,-0.437 0.33,-0.42 0.36,-0.392L0.399,-0.462C0.355,-0.502 0.293,-0.518 0.235,-0.518C0.136,-0.518 0.053,-0.468 0.053,-0.372C0.053,-0.206 0.313,-0.232 0.313,-0.135C0.313,-0.093 0.278,-0.069 0.227,-0.069C0.174,-0.069 0.116,-0.091 0.078,-0.128L0.032,-0.062Z" style="fill-rule:nonzero;"/>
                </g>
            </g>
            <g transform="matrix(3.12292,0,0,3.12292,503.341,1029.32)">
                <path d="M12.654,104.069L29.211,104.069L26.952,41.864L14.912,41.864L12.654,104.069Z" style="fill:rgb(230,0,127);fill-rule:nonzero;"/>
            </g>
            <g transform="matrix(3.12292,0,0,3.12292,503.341,1029.32)">
                <path d="M20.932,0L25.632,14.464L40.84,14.464L28.536,23.403L33.236,37.867L20.932,28.928L8.629,37.867L13.328,23.403L1.025,14.464L16.233,14.464L20.932,0Z" style="fill:rgb(230,0,127);fill-rule:nonzero;"/>
            </g>
        </g>
    </g>
</svg>
